<?xml version="1.0" encoding="utf-8"?>
<!-- Generator: Adobe Illustrator 24.0.1, SVG Export Plug-In . SVG Version: 6.00 Build 0)  -->
<svg version="1.1" id="Camada_1" xmlns="http://www.w3.org/2000/svg" xmlns:xlink="http://www.w3.org/1999/xlink" x="0px" y="0px"
	 viewBox="0 0 885.7 595.5" style="enable-background:new 0 0 885.7 595.5;" xml:space="preserve">
<style type="text/css">
	.st0{fill:#283A14;}
	.st1{opacity:0.2;}
	.st2{fill:#FEF6E3;}
	.st3{fill:#FFEB20;}
	.st4{fill:#C2860F;}
	.st5{fill:#70B62C;}
	.st6{fill:#3F3D56;}
	.st7{fill:#FFF58E;}
	.st8{fill:#FFB6B6;}
	.st9{fill:#1D1D1B;}
	.st10{fill:#2F2E41;}
	.st11{fill:#A0616A;}
</style>
<g>
	
		<image style="overflow:visible;enable-background:new    ;" width="203" height="203" xlink:href="955FD931.png"  transform="matrix(1 0 0 1 8 170.5369)">
	</image>
</g>
<path class="st0" d="M442.9,547.8L442.9,547.8c-138.1,0-250-111.9-250-250l0,0c0-138.1,111.9-250,250-250l0,0
	c138.1,0,250,111.9,250,250l0,0C692.8,435.8,580.9,547.8,442.9,547.8z"/>
<g class="st1">
	<image style="overflow:visible;" width="570" height="523" xlink:href="955FD937.png"  transform="matrix(1 0 0 1 155 35.5)">
	</image>
</g>
<g>
	<g>
		<g>
			<g>
				<g>
					<path class="st0" d="M417.1,218.2c-2.5-1-4.2-3.3-4.4-6l-0.2-2.4l0.1-0.1c0.4-0.4,0.9-1,1.2-1.7c0.3-0.7,0.3-1.4,0.3-2.1
						c0-0.6-0.1-1.3-0.2-1.8c-0.1-0.3-0.2-0.9-0.7-1.4c-0.2-0.2-0.6-0.4-0.9-0.5c-0.2,0-0.4,0-0.6,0l-0.4-4.4l0,0
						c0.4-0.4,0.8-0.8,1.1-1.4c0.3-0.6,0.5-1.3,0.5-1.8c0-0.6,0-1.2-0.1-1.7c0-0.3-0.1-0.5-0.1-0.8c-0.1-0.3-0.2-0.8-0.6-1.2
						c-0.2-0.2-0.5-0.4-0.8-0.5s-0.6-0.1-0.8-0.1l0,0l-0.2-2c-0.7-6.7-14.4-9-27-7.7c-12.6,1.2-25.6,6.2-25,12.9l1,10.3
						c-0.2,0.1-0.3,0.1-0.5,0.2c-0.3,0.2-0.7,0.5-0.9,1c0,0.1,0,0.1-0.1,0.2c0,0.1,0,0.1,0,0.2v0.2c0,0.1-0.1,0.3-0.1,0.4
						c0,0.3-0.1,0.6-0.1,0.9c0,0.6,0.2,1.3,0.6,1.9c0.4,0.6,1.1,0.9,1.6,1.1l0.6,6.5c-0.2,0.1-0.5,0.2-0.8,0.4
						c-0.2,0.2-0.5,0.4-0.6,0.8c-0.2,0.5-0.1,0.5-0.2,0.7c-0.1,0.7-0.2,1.7,0.3,2.6c0.2,0.3,0.4,0.5,0.6,0.7c-0.5,1-1.3,1.9-2.3,2.6
						c-15.7,10.1-21.8,25.7-20.8,35.8l10.1,102.2c0.7,7.1,7.1,13.1,18,17c10.5,3.7,24.2,5,38.4,3.6c14.2-1.4,27.3-5.3,37-11
						c10-5.9,15.1-13.1,14.4-20.2l-10.1-102.2C443.5,239.1,434.5,225.1,417.1,218.2z"/>
					<path class="st0" d="M403.6,386c-14.7,1.4-28.8,0.1-39.8-3.8c-12.2-4.3-19.4-11.3-20.2-19.8l-10.1-102.2
						c-1.1-11.1,5.4-28.1,22.3-39c0.1,0,0.1-0.1,0.1-0.1c-0.5-1.6-0.3-3-0.2-3.5c0-0.1,0-0.1,0-0.2c0-0.3,0.1-0.6,0.3-1.2
						c0-0.1,0.1-0.2,0.1-0.3c0.2-0.5,0.5-0.9,0.9-1.3l-0.3-2.9c-0.4-0.3-0.8-0.7-1.1-1.1c-0.8-1.1-1.3-2.4-1.3-3.8
						c0-0.5,0-1,0.1-1.4c0-0.1,0.1-0.4,0.1-0.6v-0.2c0-0.1,0.1-0.3,0.1-0.5c0-0.1,0.1-0.3,0.1-0.4v-0.1c0.2-0.5,0.6-1,0.9-1.4
						l-0.8-8.4c-0.9-9.4,13.4-15.1,28-16.5c14.5-1.4,29.6,1.3,30.6,10.6c0.3,0.2,0.7,0.5,0.9,0.8c1.1,1.2,1.3,2.5,1.4,2.9v0.1v0.2
						c0,0.2,0.1,0.5,0.1,0.7c0.1,0.7,0.1,1.5,0.1,2.2c-0.1,1.1-0.4,2.2-0.8,3.1c-0.2,0.4-0.4,0.7-0.6,1l0.1,0.9
						c0.3,0.2,0.5,0.4,0.7,0.6c0.9,0.9,1.5,2,1.7,3.3c0.1,0.8,0.2,1.6,0.2,2.3c0,1.2-0.2,2.3-0.6,3.3c-0.2,0.6-0.5,1.1-0.9,1.7
						l0.1,1c0.1,1.4,1,2.7,2.3,3.2c18.7,7.4,28.3,22.7,29.4,33.9l10.1,102.2c0.8,8.5-4.8,16.8-16,23.4
						C431.9,380.5,418.2,384.5,403.6,386z M362.2,219.1c1,1,1.3,2.6,0.6,3.9c-0.8,1.5-2,2.9-3.5,3.8c-14.5,9.4-20.2,23.5-19.3,32.7
						l10.1,102.2c0.6,5.7,6.2,10.8,15.8,14.2c10.1,3.6,23.2,4.8,37,3.4c13.7-1.4,26.4-5.1,35.6-10.6c8.8-5.2,13.3-11.2,12.7-17
						l-10.1-102.2c-0.9-9.2-9.2-22-25.3-28.3l0,0c-3.6-1.4-6.1-4.8-6.5-8.7l-0.2-2.4c-0.1-1,0.3-2,1-2.7l0.1-0.1
						c0.3-0.3,0.4-0.5,0.4-0.5c0.1-0.2,0.1-0.5,0.1-0.8c0-0.2,0-0.4,0-0.6c-1.2-0.4-2.2-1.5-2.3-2.8l-0.4-4.4c-0.1-1,0.3-2,1-2.7
						c0.2-0.2,0.4-0.4,0.5-0.6c0.1-0.2,0.1-0.4,0.1-0.6c0-0.3,0-0.6,0-0.9c-1.2-0.4-2.2-1.5-2.3-2.8l-0.2-2
						c-0.3-3.2-10.6-6-23.4-4.8c-12.8,1.3-22.3,6-22,9.2l1,10.3c0.1,1.3-0.5,2.5-1.6,3.2c1.2,0.4,2,1.5,2.2,2.8l0.6,6.5
						C364,217.2,363.4,218.4,362.2,219.1L362.2,219.1z M361.1,205.7c0,0.1,0,0.2,0,0.3C361.1,205.8,361.1,205.7,361.1,205.7z"/>
				</g>
			</g>
			<g>
				<g>
					<g>
						<g>
							<g>
								<g>
									<path class="st2" d="M416.6,219.5c-3-1.2-5-4-5.3-7.1l-2.4-24c-0.5-4.9-11.9-7.8-25.5-6.5s-24.2,6.4-23.7,11.3l2.4,24
										c0.3,3.2-1.1,6.3-3.8,8c-15.2,9.8-21.1,24.7-20.1,34.5l10,102.3c1.3,13.5,25.9,22.1,54.8,19.3c29-2.9,51.4-16.1,50-29.6
										l-10.1-102.2C442.1,239.7,433.4,226.1,416.6,219.5z"/>
								</g>
							</g>
						</g>
					</g>
				</g>
				<g>
					<g>
						<g>
							<g>
								<g>
									<path class="st0" d="M351,331.3l2.3,31.7c0,0,5.9,19,47.1,15.2c41.1-3.9,48-22.3,48-22.3l-3.3-33.3c0,0,1.1,25.8-2.5,30.4
										s-17.1,15-43.1,16.7c-25.7,1.6-40-4.9-42.5-10.7S351,331.3,351,331.3z"/>
								</g>
							</g>
						</g>
					</g>
				</g>
				<g>
					<g>
						<g>
							<g>
								<g>
									<path class="st0" d="M429.2,234c4.6,4.3,7.9,7.5,8.4,12.7c0.6,6.1,6.3,64.4,6.3,64.4s0.2,3-2.4,3.2s-3.2-2.6-3.2-2.6
										l-5.2-53.3c-0.1-1.5-1.8-2.3-3.1-1.5c-3.7,2.3-10.8,6-19.3,6.8C427.6,255.4,436.5,249.1,429.2,234z"/>
								</g>
							</g>
						</g>
					</g>
				</g>
				<g>
					<g>
						<g>
							<g>
								<g>
									<path class="st2" d="M384,187.1c5.1-0.5,10.1-0.4,14.1,0.4c3.5,0.6,5.2,1.6,5.8,2l2.3,23.4c0.5,5.2,3.8,9.5,8.5,11.4
										c14.1,5.6,22.4,17.1,23.2,25.6L448,352.1c0.4,4.3-3.7,9.5-11.2,13.9c-8.8,5.2-21,8.8-34.3,10.1
										c-13.3,1.3-25.9,0.2-35.6-3.2c-8.1-2.9-13.2-7.1-13.6-11.4l-10.1-102.2c-0.8-8.5,5-21.4,17.8-29.7
										c4.3-2.8,6.7-7.7,6.1-12.9l-2.3-23.4c0.5-0.6,2-1.8,5.3-3.1C374,188.7,378.9,187.6,384,187.1L384,187.1z M383.5,181.9
										c-13.6,1.3-24.2,6.4-23.7,11.3l2.4,24c0.3,3.2-1.1,6.3-3.8,8c-15.2,9.8-21.1,24.7-20.1,34.5l9.9,102.3
										c1.3,13.5,25.9,22.1,54.8,19.3c29-2.9,51.4-16.1,50-29.6l-10.1-102.2c-1-9.8-9.7-23.3-26.5-29.9c-3-1.2-5-4-5.3-7.1
										l-2.4-24C408.4,183.5,397,180.6,383.5,181.9L383.5,181.9z"/>
								</g>
							</g>
						</g>
					</g>
				</g>
				<g>
					<g>
						<g>
							<g>
								<g>
									<path class="st0" d="M361.3,255.6c0.3-8.6,7.2-16.5,8.6-20.3s0.7-6.1-3.8-5.1c-2.9,0.6-1.8-3.5-0.9-5
										c1.4-2.4,2.1-4.4,2.1-4.4l-6.3-2.4c0,0-0.1,2.6-1.8,5.1c-1.7,2.5-0.6,2.6-0.6,2.6c-3.3,3.8-6.7,6.9-9.2,11.2
										c2.9-2.9,6-3.9,8.5-2.4c3.3,2,3.5,7.5,0.6,12.4c-2.9,4.8-8,7.2-11.2,5.2c-1.8-1.1-2.7-3.2-2.6-5.7
										c-1.1,3.9-1.6,8.3-1.1,13.4l7.1,66.4c0,0-1.4-50.9-2.1-56.9c-0.2-1.6,1.4-2.8,3-2.6c6.5,0.9,20.8,3.2,39.8-0.5
										C375.9,266.8,361,264.2,361.3,255.6z M350.7,258.9c-0.3,1.6-1.5,2.7-2.7,2.5s-2.1-1.6-1.8-3.2c0.3-1.6,1.5-2.7,2.7-2.5
										C350.1,256,350.9,257.4,350.7,258.9z"/>
								</g>
							</g>
						</g>
					</g>
				</g>
				<g>
					<g>
						<g>
							<g>
								<g>
									<path class="st0" d="M403.2,382.7c-14.2,1.4-27.8,0.1-38.4-3.6c-10.9-3.8-17.3-9.9-18-17l-10.1-102.2
										c-1-10.2,5.1-25.7,20.8-35.8c2.2-1.4,3.4-4,3.2-6.7l-2.4-24c-0.7-6.7,12.4-11.6,25-12.9c12.6-1.2,26.4,1.1,27,7.7l2.4,24
										c0.3,2.7,2,5,4.4,6l0,0c17.4,6.9,26.3,20.9,27.3,31.1l10.1,102.2c0.7,7.1-4.4,14.3-14.4,20.2
										C430.6,377.4,417.4,381.3,403.2,382.7z M383.6,183.4c-13.3,1.3-22.8,6.2-22.4,9.7l2.4,24c0.4,3.8-1.3,7.4-4.5,9.4
										c-14.7,9.5-20.4,23.8-19.5,33.2l10.1,102.2c0.6,5.9,6.3,11.1,16.1,14.6c10.2,3.6,23.4,4.8,37.2,3.4s26.5-5.1,35.8-10.6
										c8.9-5.3,13.5-11.5,13-17.4l-10.1-102.2c-0.9-9.3-9.3-22.3-25.6-28.7l0,0c-3.5-1.4-5.8-4.6-6.2-8.3l-2.4-24
										C407.2,185,396.9,182.1,383.6,183.4z"/>
								</g>
							</g>
						</g>
					</g>
				</g>
				<g>
					<g>
						<g>
							<g>
								<g>
									<g>
										<path class="st0" d="M399,340c-18.7,1.8-39-0.9-39.8-9.5l-5.6-56.9c0-0.5,0.2-1,0.6-1.3s0.9-0.4,1.4-0.2
											c6.8,3,21.3,3.9,37,2.3c15.7-1.5,29.7-5.3,35.8-9.5c0.4-0.3,1-0.3,1.4-0.1c0.5,0.2,0.8,0.7,0.8,1.2l5.6,56.9
											C437.1,331.6,417.7,338.2,399,340z M356.7,275.6l5.4,54.6c0.5,4.9,15.7,9,36.7,6.9s35.1-9,34.7-14l-5.4-54.6
											c-7.2,4-20.3,7.3-35.2,8.7C378,278.8,364.5,278.1,356.7,275.6z"/>
									</g>
								</g>
							</g>
						</g>
						<g>
							<g>
								<g>
									<g>
										<path class="st0" d="M391.9,282.7c-2.1,15.5-0.5,21.9,1.6,27.7c-5.2-9.9-18-17.1-18-17.1c6.9,13.9,14.7,19.1,17.1,20.4
											c-8.8-4.6-23.1-1.7-23.1-1.7c11.8,4.5,16.4,5.5,22.9,4.6c-3.7,2.2-5.1,6.6-5.7,9.7c2.9-4.3,7.7-5.6,9.2-9.8
											c0.7,3.5,1.1,7.4,0.8,9.9c-0.3,2.6-0.4,2.4-0.7,2.9c0.4,0.5,0.9,0.7,1.6,0.7c0.4-0.9,0.6-1.6,0.4-3.3s-1-10.3-1-10.3
											s1.7,2.2,3.6,3.4c3.5,2.1,6.7,2.2,8.4,4.3c-1.9-4.1-4.9-7.6-9.7-9c8.7-1.3,14-4.3,22.5-9.7c-10.2,1.4-18.4,2.7-23,7.5
											c8-8.8,9.3-15.5,10.4-25.1c-9.4,12.2-10.7,15.8-12.2,21.5C398.3,301.2,396.4,293.1,391.9,282.7z"/>
									</g>
								</g>
							</g>
						</g>
					</g>
				</g>
				<g>
					<g>
						<g>
							<g>
								<g>
									<path class="st0" d="M402.4,186.1c0.5,0.2,0.9,0.5,1.4,0.9c0.4,0.4,0.8,0.9,0.9,1.5c0.2,0.6,0.1,1.3-0.1,1.9
										c-0.2,0.6-0.6,1.1-1,1.6c-0.8,0.9-1.7,1.5-2.7,2.1s-2,1-3,1.4c-4.1,1.6-8.3,2.4-12.5,2.8c-4.2,0.4-8.5,0.5-12.8-0.2
										c-2.1-0.4-4.3-0.9-6.3-2c-0.5-0.3-1-0.7-1.4-1.1c-0.4-0.4-0.8-1-0.9-1.6s-0.1-1.2,0.2-1.8c0.2-0.5,0.6-1,1-1.3
										c-0.5,0.9-0.7,2-0.2,2.8c0.4,0.7,1.2,1.2,2.1,1.5c1.8,0.6,3.8,0.8,5.8,0.9c4,0.1,8.1-0.2,12.2-0.6c4.1-0.4,8.1-1,12-2
										c1-0.3,1.9-0.5,2.8-0.9s1.8-0.8,2.5-1.3s1.3-1.2,1.3-2.1C403.8,187.7,403.2,186.8,402.4,186.1z"/>
								</g>
							</g>
						</g>
					</g>
				</g>
				<g>
					<g>
						<g>
							<g>
								<g>
									<path class="st0" d="M385,197.7c5.6-0.5,10.5-1.9,14-3.5c-0.7-2.2-7-3.3-14.6-2.6s-13.6,3.1-13.8,5.4
										C374.4,198,379.5,198.3,385,197.7z"/>
								</g>
							</g>
						</g>
					</g>
				</g>
				<g>
					<g>
						<g>
							<g>
								<g>
									<path class="st0" d="M372.2,244c2.9-1.8,6.1-3.1,9.4-4.1s6.7-1.7,10.1-2.1c3.4-0.4,6.8-0.5,10.3-0.3
										c3.4,0.2,6.9,0.7,10.1,1.9c-3.4,0-6.8,0.1-10.1,0.3c-3.3,0.2-6.6,0.5-10,0.9c-3.3,0.4-6.6,0.9-9.9,1.4
										C378.8,242.6,375.6,243.2,372.2,244z"/>
								</g>
							</g>
						</g>
					</g>
				</g>
				<g>
					<g>
						<g>
							<g>
								<g>
									<g>
										<path class="st0" d="M410.8,226.5c2,0.3,4,0.9,6,1.8c1.9,0.8,3.7,1.9,5.4,3.3c1.6,1.4,3,3.1,4,4.9c1,1.9,1.7,3.9,1.9,6
											c-0.9-1.9-1.9-3.6-3-5.2c-1.2-1.6-2.5-3.1-4-4.3c-1.5-1.3-3.1-2.4-4.8-3.4C414.4,228.4,412.6,227.5,410.8,226.5z"/>
									</g>
								</g>
							</g>
						</g>
						<g>
							<g>
								<g>
									<g>
										<path class="st0" d="M414.7,233.5c1,0,2,0.2,3,0.5c1,0.4,1.9,0.9,2.7,1.6c1.6,1.4,2.7,3.5,2.5,5.5
											c-0.6-0.8-1.2-1.6-1.8-2.3c-0.6-0.7-1.2-1.3-1.9-1.9c-0.7-0.6-1.4-1.1-2.2-1.7C416.3,234.7,415.5,234.2,414.7,233.5z"/>
									</g>
								</g>
							</g>
						</g>
					</g>
				</g>
				<g>
					<g>
						<g>
							<g>
								<g>
									<g>
										<path class="st2" d="M385.3,209.2c-7.2,3.8-13.8,6.8-22,7.5c-0.9,0.1-2.9,0.3-3.1,1.2s-0.6,3.3,2.5,3.3
											c10.8,0,19.1-5.3,28.2-10.2L385.3,209.2z"/>
									</g>
								</g>
							</g>
						</g>
					</g>
					<g>
						<g>
							<g>
								<g>
									<g>
										<path class="st0" d="M385.3,209.2c-4.4,2.8-9,5.4-14.1,7c-2.5,0.8-5.2,1.3-7.8,1.6c-0.6,0.1-1.2,0.2-1.7,0.3
											c-0.2,0.1-0.5,0.2-0.5,0.2l0,0c0.1-0.2,0,0.1,0,0.2c-0.1,0.5,0,1,0.1,1.2c0.1,0.1,0.1,0.2,0.3,0.2
											c0.1,0.1,0.3,0.1,0.5,0.2c0.1,0,0.2,0,0.4,0c0.1,0,0.2,0,0.4,0h0.9c0.6,0,1.3,0,1.9-0.1c0.6,0,1.2-0.1,1.9-0.2
											c0.6-0.1,1.2-0.2,1.9-0.3c2.5-0.5,4.9-1.2,7.3-2.1c4.8-1.8,9.4-4.2,14.2-6.3c-4.3,2.9-8.7,5.7-13.5,7.9
											c-2.4,1.1-4.9,2-7.5,2.6c-0.7,0.2-1.3,0.3-2,0.4c-0.7,0.1-1.3,0.2-2,0.3s-1.3,0.1-2,0.1h-1c-0.2,0-0.4,0-0.6,0
											s-0.4,0-0.6-0.1c-0.4-0.1-0.9-0.2-1.3-0.4c-0.4-0.3-0.8-0.7-1.1-1.1c-0.5-1-0.4-1.9-0.3-2.6c0-0.2,0-0.3,0.2-0.7
											s0.4-0.6,0.6-0.8c0.5-0.3,0.9-0.5,1.2-0.6c0.8-0.2,1.5-0.3,2.1-0.3c2.5-0.2,5-0.6,7.5-1.2
											C375.7,213.2,380.4,211.2,385.3,209.2z"/>
									</g>
								</g>
							</g>
						</g>
					</g>
				</g>
				<g>
					<g>
						<g>
							<g>
								<g>
									<g>
										<path class="st2" d="M374.4,201c-4.3,1.6-7.7,2.7-12.4,3.2c-0.9,0.1-2.9,0.3-3.1,1.2s-0.6,3.3,2.5,3.3
											c7.9,0,13.9-2.7,20.7-6.2L374.4,201z"/>
									</g>
								</g>
							</g>
						</g>
					</g>
					<g>
						<g>
							<g>
								<g>
									<g>
										<path class="st0" d="M374.4,201c-3.2,1.7-6.6,3.1-10.3,3.8c-0.5,0.1-0.9,0.2-1.4,0.2l-0.7,0.1c-0.2,0-0.4,0.1-0.6,0.1
											c-0.4,0.1-0.8,0.2-1.1,0.3c-0.2,0.1-0.3,0.1-0.4,0.2c-0.1,0.1-0.1,0.1,0,0l0,0l0,0v0.1v0.3c0,0.2,0,0.3,0,0.5
											c0,0.3,0.1,0.5,0.2,0.6c0.2,0.2,0.8,0.4,1.6,0.4c3.5,0,6.9-0.5,10.3-1.5s6.7-2.3,10.2-3.5c-3,2-6.1,3.9-9.6,5.2
											c-3.4,1.3-7.2,2.1-10.9,2.1c-0.5,0-1.1,0-1.6-0.2c-0.6-0.1-1.3-0.5-1.7-1.1c-0.5-0.6-0.6-1.3-0.6-1.9c0-0.3,0-0.6,0.1-0.9
											c0-0.1,0-0.3,0.1-0.4v-0.2c0,0,0-0.1,0-0.2c0-0.1,0-0.1,0.1-0.2c0.2-0.5,0.6-0.8,0.9-1s0.6-0.3,0.8-0.4
											c0.5-0.2,1-0.2,1.5-0.3c0.2,0,0.5,0,0.7-0.1h0.7c0.4,0,0.9-0.1,1.3-0.1C367.4,202.8,370.9,201.9,374.4,201z"/>
									</g>
								</g>
							</g>
						</g>
					</g>
				</g>
				<g>
					<g>
						<g>
							<g>
								<g>
									<g>
										<path class="st2" d="M393.8,204.4c5.8-3.5,11.1-7.2,15.5-12.3c0.6-0.7,2-1.3,2.3,0.2c0.6,3.4-0.3,4-1.6,5.4
											c-1.3,1.3-9.8,8.1-14.9,10.9L393.8,204.4z"/>
									</g>
								</g>
							</g>
						</g>
					</g>
					<g>
						<g>
							<g>
								<g>
									<g>
										<path class="st0" d="M393.8,204.4c3.1-2.5,6.3-4.8,9.2-7.4c1.4-1.3,2.8-2.6,4.1-4.1c0.3-0.4,0.7-0.7,1-1.1l0.5-0.6
											c0.3-0.3,0.5-0.5,0.9-0.7c0.3-0.2,0.7-0.3,1.2-0.4c0.2,0,0.5,0,0.8,0.1s0.6,0.3,0.8,0.5c0.4,0.4,0.5,0.9,0.6,1.2
											c0,0.3,0.1,0.5,0.1,0.8c0.1,0.5,0.1,1.1,0.1,1.7c0,0.6-0.2,1.2-0.5,1.8s-0.7,1.1-1.1,1.4l-0.5,0.5
											c-0.2,0.2-0.4,0.4-0.6,0.5c-1.6,1.3-3.1,2.5-4.8,3.6c-1.6,1.2-3.3,2.2-5,3.3c-1.7,1-3.5,2-5.3,2.7
											c3.2-2.3,6.2-4.8,9.2-7.3l2.2-1.9c0.7-0.6,1.5-1.3,2.2-1.9c0.2-0.2,0.3-0.3,0.5-0.5l0.5-0.5c0.3-0.3,0.6-0.6,0.7-0.9
											c0.3-0.6,0.3-1.4,0.2-2.3c0-0.2-0.1-0.4-0.1-0.7c0-0.1-0.1-0.2,0-0.1c0.1,0.1,0.3,0.1,0.2,0.1c0,0-0.1,0-0.2,0.1
											s-0.2,0.1-0.3,0.2l-0.5,0.5c-0.3,0.4-0.7,0.7-1,1.1c-1.4,1.4-2.9,2.8-4.6,4C400.9,200.8,397.4,202.8,393.8,204.4z"/>
									</g>
								</g>
							</g>
						</g>
					</g>
				</g>
				<g>
					<g>
						<g>
							<g>
								<g>
									<g>
										<path class="st2" d="M390.8,217c6.6-2.7,15.2-7.7,19.7-12.8c0.6-0.7,2-1.3,2.3,0.2c0.6,3.4-0.3,4-1.6,5.4
											c-1.3,1.3-11.6,9-17.8,10.6L390.8,217z"/>
									</g>
								</g>
							</g>
						</g>
					</g>
					<g>
						<g>
							<g>
								<g>
									<g>
										<path class="st0" d="M390.8,217c4-2.1,7.7-4.4,11.3-7c1.8-1.3,3.5-2.6,5.1-4.1c0.8-0.7,1.6-1.5,2.3-2.3
											c0.1-0.1,0.2-0.2,0.3-0.4c0.1-0.1,0.3-0.3,0.5-0.4c0.3-0.2,0.7-0.4,1.2-0.5c0.2,0,0.5-0.1,0.9,0c0.3,0.1,0.7,0.2,0.9,0.5
											c0.5,0.5,0.6,1,0.7,1.4c0.1,0.6,0.2,1.2,0.2,1.8s-0.1,1.4-0.3,2.1c-0.3,0.7-0.8,1.3-1.2,1.7c-0.2,0.2-0.4,0.4-0.6,0.6
											c-0.3,0.2-0.5,0.4-0.7,0.6c-1.8,1.4-3.7,2.7-5.6,3.9s-3.9,2.3-5.9,3.3c-2,0.9-4.2,1.8-6.4,2.2c2.1-0.8,4-1.9,5.9-3.1
											c1.9-1.2,3.7-2.5,5.5-3.7c0.9-0.6,1.8-1.3,2.6-2c0.9-0.7,1.7-1.4,2.5-2.1c0.2-0.2,0.4-0.4,0.5-0.5l0.6-0.6
											c0.3-0.4,0.6-0.7,0.7-1c0.3-0.7,0.2-1.7,0-2.7c0-0.2-0.1-0.2,0-0.1c0,0,0.1,0.1,0.2,0.1c0,0,0.1,0,0,0s-0.2,0.1-0.3,0.1
											c-0.1,0-0.1,0.1-0.2,0.1l-0.2,0.3c-0.4,0.4-0.8,0.9-1.2,1.3c-0.4,0.4-0.8,0.8-1.3,1.2c-1.8,1.5-3.6,2.8-5.5,4
											C399.2,213.8,395.1,215.7,390.8,217z"/>
									</g>
								</g>
							</g>
						</g>
					</g>
				</g>
				<g>
					<g>
						<g>
							<g>
								<g>
									<g>
										<path class="st2" d="M410.2,200.9c-4.1,3.7-10.9,8.5-10.9,8.5L410.2,200.9z"/>
									</g>
								</g>
							</g>
						</g>
					</g>
					<g>
						<g>
							<g>
								<g>
									<g>
										<path class="st0" d="M411.7,202.6c-2.1,1.3-4.1,2.5-6.2,3.6s-4.2,2.2-6.3,3.2c1.7-1.6,3.3-3.3,4.9-5s3.1-3.4,4.5-5.2
											L411.7,202.6z"/>
									</g>
								</g>
							</g>
						</g>
					</g>
				</g>
				<g>
					<g>
						<g>
							<g>
								<g>
									<g>
										<path class="st2" d="M361.7,213c5.3-0.1,15.7-4.2,15.7-4.2L361.7,213z"/>
									</g>
								</g>
							</g>
						</g>
					</g>
					<g>
						<g>
							<g>
								<g>
									<g>
										<path class="st0" d="M361.7,211.6c1.2,0.1,2.5,0,3.8-0.2s2.6-0.4,4-0.7c2.7-0.5,5.3-1.2,7.9-2c-2.5,1.2-4.9,2.3-7.5,3.3
											c-1.3,0.5-2.6,1-3.9,1.4s-2.7,0.8-4.2,0.9L361.7,211.6z"/>
									</g>
								</g>
							</g>
						</g>
					</g>
				</g>
				<g>
					<g>
						<g>
							<g>
								<g>
									<path class="st0" d="M370.8,208.3c-2.3,1-8.3,3.2-5.1,4.7c2.4,1.2,10.4-0.3,10.4-0.3s-4.7,2.5-8,3
										c-3.4,0.5-6.8,1.1-6.8,1.1l-0.6-8.1L370.8,208.3z"/>
								</g>
							</g>
						</g>
					</g>
				</g>
				<g>
					<g>
						<g>
							<g>
								<g>
									<path class="st0" d="M361.1,192.7c0.3,3.5,1.3,4.2,4.1,5.7c4,2.1,9.2,2.6,9.2,2.6s-6.8,2.3-9.6,2.7
										c-2.9,0.4-4.2,0.6-4.2,0.6l-0.6-9.1L361.1,192.7z"/>
								</g>
							</g>
						</g>
					</g>
				</g>
				<g>
					<g>
						<g>
							<g>
								<g>
									<path class="st0" d="M406.2,213.5c0.8,3.9,2.8,6.8,10.8,11.2c3.5,1.9,9.2,5.8,9.2,5.8s-5.2-6.1-8.1-8.1
										c-2.1-1.5-3.8-3.3-5.1-5.8c-1.3-2.4-1.4-7.5-1.4-7.5L406.2,213.5z"/>
								</g>
							</g>
						</g>
					</g>
				</g>
				<g>
					<g>
						<g>
							<g>
								<g>
									<g>
										
											<ellipse transform="matrix(0.9952 -9.794573e-02 9.794573e-02 0.9952 -33.0249 40.6787)" class="st0" cx="397.8" cy="356.7" rx="33.2" ry="9.7"/>
									</g>
								</g>
							</g>
						</g>
						<g>
							<g>
								<g>
									<g>
										<path class="st0" d="M396.6,343c-7.2,0.7-29.2,4.4-33.8,12.3c4.9-5,24.6-9,29.1-9.4c28.4-2.7,36.2,2.5,36.5,4.3
											c0.8,5.7-14.8,12.8-34.6,14.8c-11.7,1.1-19,0.2-23.9-1.9c0,0.2,0,0.5,0,0.7c5.6,2.7,15,4,29.1,2.6
											c22.2-2.2,39.5-10.9,38.8-17.3C437.1,342.6,418.7,340.8,396.6,343z"/>
									</g>
								</g>
							</g>
						</g>
					</g>
				</g>
				<g>
					<g>
						<g>
							<g>
								<g>
									<path class="st0" d="M401.7,198.3c0.6-0.3,1.2-0.6,1.8-1c0.5-0.5,1-1,1.6-1.4c0.8-0.7,2-1.5,3-2.3c0.3-0.7,0.6-1.4,1.4-1.9
										l-0.2-1.2l-1.6-2.2c0.4,3.4-0.5,4.4-2.9,6.4c-3.5,2.9-10.4,4.7-10.4,4.7s2.2,0.3,3.4,0.1
										C400.2,199.2,400.4,199,401.7,198.3z"/>
								</g>
							</g>
						</g>
					</g>
				</g>
			</g>
		</g>
	</g>
</g>
<circle class="st3" cx="109.3" cy="271.7" r="65"/>
<path class="st4" d="M137.4,593.7H12.3l28.3-454L59,32.7l3.5-18.1c4.2-21.4,35.6-18.5,35.8,3.3c0.6,50.6-20.6,98.3-19.6,121.8
	c4.7,106.5,14.4,257.5,33.2,302C126,474.8,133.5,581.2,137.4,593.7z"/>
<path class="st4" d="M869.4,593.7H753.7l-12.2-454l-23.3-107c-0.3-21.8,31.2-25.4,35.8-4l0,0c0,0,23,47.6,25.8,111
	c4.7,106.5,45.4,257.5,64.2,302C858,474.8,865.5,581.2,869.4,593.7z"/>
<path class="st5" d="M175.5,296.2c26.2,2.1,87,34,87,34c47.3,47.3,117.9,50.1,165,52c70.1,2.8,123.2-19,162-35c0,0,90.8-20.9,92-21
	c1.4-0.1,2.8,3.5,3,4c3,8.9-29.9,41.7-68,53c-5.2,1.5-16.9,4.6-29,14c-7.5,5.8-11.9,11.6-13,13c-10.2,12.9-64.5,61.8-126,64
	c-52.6,1.9-94.7-31-142-68c-18.8-14.7-16.5-15.8-40-34c-53.3-41.4-79.9-62.1-92-69c-1.7-1-7.6-4.2-7-6
	C168,295.6,173.7,296,175.5,296.2L175.5,296.2z"/>
<path class="st6" d="M167.5,298.2c-0.2,0-0.4,0-0.5-0.2L36.8,217.2c-0.5-0.3-0.6-0.9-0.3-1.4s0.9-0.6,1.4-0.3l130.2,80.8
	c0.5,0.3,0.6,0.9,0.3,1.4C168.2,298,167.9,298.2,167.5,298.2L167.5,298.2z"/>
<path class="st6" d="M681.5,327.2c-0.4,0-0.7-0.2-0.9-0.5c-0.3-0.5-0.1-1.1,0.4-1.3l112.6-58.8c0.5-0.3,1.1-0.1,1.3,0.4
	c0.3,0.5,0.1,1.1-0.4,1.3L682,327.1C681.8,327.2,681.7,327.2,681.5,327.2z"/>
<path class="st4" d="M0,594.3c0,0.7,0.5,1.2,1.2,1.2h159.3c0.7,0,1.2-0.5,1.2-1.2s-0.5-1.2-1.2-1.2H1.2C0.5,593.2,0,593.7,0,594.3z"
	/>
<path class="st4" d="M713,594.3c0,0.7,0.5,1.2,1.2,1.2h170.3c0.7,0,1.2-0.5,1.2-1.2s-0.5-1.2-1.2-1.2H714.2
	C713.5,593.2,713,593.7,713,594.3z"/>
<g>
	
		<image style="overflow:visible;enable-background:new    ;" width="245" height="75" xlink:href="955FD936.png"  transform="matrix(1 0 0 1 359 556.5369)">
	</image>
</g>
<g>
	<path class="st7" d="M278.6,314.6c0,0-6.4,10-1.1,15.9s37,29.4,37,29.4s20,12.3,18-4.6s-30.5-35-30.5-35L278.6,314.6L278.6,314.6z"
		/>
	<path class="st8" d="M330.5,288c-3.4-0.3-6.6,3.8-7.1,9.1c-0.2,2.1,0,4.3,0.8,6.3l-0.5,6.1h-0.1l-7.1,28
		c-1.7,6.5-0.3,13.5,3.9,18.7c2.5,3.1,5.4,5,8.1,2.2c4.4-4.7,4.3-27.5,3.8-40.5l1.5-13.6c1.1-1.8,1.8-3.9,2-6
		C336.3,293,333.9,288.4,330.5,288L330.5,288z"/>
</g>
<g>
	<path class="st5" d="M340.7,286.8v-0.4c0-0.3-0.2-0.6-0.4-0.8s-0.5-0.3-0.8-0.2l-14.1,3.1c-0.3,0.1-0.5,0.3-0.7,0.5
		c-0.1,0.3-0.2,0.6-0.1,1l0.1,0.6l0.9,4l3.6,15.5c0.1,0.6,0.6,0.9,1.1,0.9h0.1l11.1-2.5c0.1,0,0.2-0.1,0.3-0.1
		c0.4-0.2,0.6-0.7,0.5-1.2L340.7,286.8L340.7,286.8z"/>
	<path class="st9" d="M340.4,284.5c-0.2,0-0.5,0-0.8,0c0.1-0.2,0.1-0.4,0-0.6l-0.4-1.5c-0.1-0.4-0.4-0.7-0.8-0.7
		c-2.1,0-9.4,0.2-13.7,3.2c-0.3,0.2-0.4,0.5-0.4,0.9l0.1,1.7c0,0.2,0.1,0.4,0.2,0.5c-0.4,0.2-0.7,0.4-1.1,0.5
		c-0.2,0.1-0.4,0.4-0.4,0.7v0.7c0,0.5,0.4,0.8,0.7,0.7l16.8-3.8c0.4-0.1,0.6-0.6,0.5-1l-0.3-0.9
		C340.9,284.6,340.7,284.5,340.4,284.5L340.4,284.5z"/>
</g>
<polygon class="st8" points="296.9,306.8 292.6,320.8 274.3,316.5 273.2,293.8 "/>
<path class="st7" d="M271,313.3l23.7,2.2l9.5,9.3l13.1,11.2c0,0,7.6,10.8,5.4,24.8l12.9,10.8l-32.4,33.2l-41-34.3
	C262.4,370.4,248.4,328.4,271,313.3L271,313.3z"/>
<path class="st10" d="M327.1,372.6l9.4-1.1l15.3,1.1l50.2-29.9c6.3-3.8,14.5-1.8,18.4,4.4l40.4,64.3l-12.9,8.6L408,379l-49.8,41
	c0,0-50.6,26.4-54.9-15.4L327.1,372.6L327.1,372.6z"/>
<polygon class="st10" points="358.4,410.4 439.4,402.8 516,422.2 520.3,406.1 415.6,368.3 377.9,378 "/>
<path class="st7" d="M267.7,322c0,0-7.4,9.3-2.8,15.7c4.6,6.4,33.6,33.2,33.6,33.2s18.6,14.3,18.4-2.7s-26.5-38-26.5-38L267.7,322z"
	/>
<g>
	<circle class="st8" cx="290.6" cy="287" r="20.5"/>
	<path class="st10" d="M309.5,283.5c-5.3,0-5.6,0-6.4,0c-6.5-0.2-8.2-2.7-11.5-2.6c-5.9,0.3,1.9,29.9,5.1,43.5
		c3.2,13.4-7.6,25.4-8.3,26.2c-10.9,11.8-30,14-33.3,9c-2.7-4.1,6.8-10.3,4.5-19.2c-2.2-8.7-12.5-7.8-15.4-16
		c-3-8.6,7.1-12.9,13.4-33.9c3.6-12.1,3-14.3,6.4-21.8c9.1-20,53.7-11.5,48.7,7C311.8,279.4,314.3,283.5,309.5,283.5L309.5,283.5z"
		/>
</g>
<path class="st5" d="M169,296.7c26.2,2.1,86.5,45.9,86.5,45.9c47.3,47.3,117.9,50.1,165,52c70.1,2.8,123.2-19,162-35
	c0,0,80.5,13.1,90-18c0.1-0.3,0.8-2.9,2-3c1.4-0.1,2.8,3.5,3,4c3,8.9-29.9,41.7-68,53c-5.2,1.5-16.9,4.6-29,14
	c-7.5,5.8-11.9,11.6-13,13c-10.2,12.9-64.5,61.8-126,64c-52.6,1.9-94.7-31-142-68c-18.8-14.7-16.5-15.8-40-34
	c-53.3-41.4-79.9-62.1-92-69c-1.7-1-4.1-18.2-3.5-19.9C164.5,294.1,167.2,296.5,169,296.7z"/>
<path class="st8" d="M379.6,403.6c1.5-3.1-1.2-7.5-6-9.9c-1.9-1-4-1.5-6.2-1.5l-5.5-2.6v-0.1L338.3,373c-5.5-3.9-12.5-5.1-18.9-3
	c-3.8,1.2-6.6,3.3-4.9,6.8c2.8,5.8,24.2,13.8,36.5,18l12.1,6.2c1.3,1.7,3,3.1,4.9,4C372.9,407.3,378.1,406.7,379.6,403.6
	L379.6,403.6z"/>
<g>
	<path class="st11" d="M512.2,250.1c0,0-7.8-15.5-6.2-29.5L480.2,234l1,25.4L512.2,250.1L512.2,250.1z"/>
	
		<ellipse transform="matrix(0.9239 -0.3827 0.3827 0.9239 -46.0899 203.8602)" class="st11" cx="489.4" cy="217.8" rx="23.3" ry="23.3"/>
	<g>
		<polygon class="st11" points="520,584.1 505.8,584.1 499,529.2 520,529.2 		"/>
		<path class="st10" d="M471.2,583.8L471.2,583.8c-0.4,0.7-0.7,3.2-0.7,4l0,0c0,2.7,2.2,4.8,4.8,4.8h44.1c1.8,0,3.3-1.5,3.3-3.3
			v-1.8c0,0,2.2-5.5-2.3-12.3c0,0-5.6,5.3-13.9-3l-2.5-4.5l-17.8,13l-9.9,1.2C474.3,582.3,472.3,581.9,471.2,583.8L471.2,583.8
			L471.2,583.8z"/>
	</g>
	<path class="st7" d="M478,250.1l34.2-4.7l26.4,12.4l1.6,96.3c0,0-65,7.8-75.2-2.3s-2.5-90.9-2.5-90.9L478,250.1L478,250.1z"/>
	<path class="st10" d="M495.2,223.8h6.3c0,0,5.4-6.7,4.7-2.6c-0.7,4.1,2.2,8.5,2.2,8.5l4.4-1.5c0,0,8.8-36.9-17.6-39
		S463,207.7,463,207.7s1.5,10.2,4.4,7.3s19-4.4,19-4.4L495.2,223.8L495.2,223.8z"/>
	<g>
		<polygon class="st11" points="462.2,475.4 449.2,481.2 420.8,433.7 440,425.2 		"/>
		<path class="st10" d="M417.5,494.9L417.5,494.9c-0.1,0.9,0.7,3.2,1,4l0,0c1.1,2.4,3.9,3.5,6.4,2.5l40.3-17.8
			c1.7-0.7,2.4-2.7,1.7-4.3l-0.7-1.7c0,0-0.2-5.9-7.1-10.3c0,0-2.9,7.1-13.9,2.9l-4.1-3.1L430,486l-8.5,5.1
			C419.6,492.2,417.7,492.7,417.5,494.9L417.5,494.9L417.5,494.9z"/>
	</g>
	<path class="st10" d="M535.5,344.9l4.7,14.1v48.5L525,451.3l1.2,102.3h-27.3l-3.1-104.4l2.4-51.6l-18.6-7.8l-49,3l22.9,56.3
		l-25.2,16.8c0,0-37.7-85.9-32.1-94.2c5.6-8.3,71.7-23,71.7-23S535.5,346.4,535.5,344.9L535.5,344.9z"/>
	<g>
		<path class="st11" d="M549.5,288.9l7.5,12.3c0,0,10.6,41.7,0,41.9c-10.6,0.2-32.1-21.3-32.1-21.3l2.8-11.2l7.8,3.1l-1.6-24.9h15.6
			V288.9z"/>
		<path class="st7" d="M526.2,257.7c0,0,24.9-4.4,27.2,11.9s3.6,31.7,3.6,31.7l-26.9,2.2L526.2,257.7L526.2,257.7z"/>
		
			<ellipse transform="matrix(0.5801 -0.8145 0.8145 0.5801 -36.0346 554.8741)" class="st11" cx="520.2" cy="312.4" rx="7" ry="14"/>
	</g>
	<g>
		<path class="st5" d="M492.7,283.3l-0.1-0.6c0-0.5-0.3-1-0.6-1.3s-0.8-0.4-1.3-0.3l-21.4,4.7c-0.4,0.1-0.8,0.4-1.1,0.8
			c-0.2,0.4-0.3,1-0.2,1.5l0.2,0.9l1.4,6.1l5.5,23.6c0.2,0.9,0.9,1.4,1.6,1.3c0.1,0,0.1,0,0.2,0l16.9-3.8c0.2,0,0.3-0.1,0.5-0.2
			c0.5-0.3,0.9-1,0.8-1.8L492.7,283.3L492.7,283.3z"/>
		<path class="st9" d="M492.3,279.8c-0.3,0-0.7,0-1.2,0c0.1-0.3,0.1-0.6,0-1l-0.6-2.3c-0.2-0.6-0.6-1-1.2-1
			c-3.2,0-14.3,0.3-20.7,4.9c-0.4,0.3-0.6,0.8-0.6,1.4l0.2,2.5c0,0.3,0.1,0.6,0.3,0.8c-0.6,0.3-1.1,0.5-1.6,0.8
			c-0.3,0.2-0.6,0.6-0.5,1v1.1c0,0.7,0.6,1.2,1.1,1.1l25.5-5.8c0.6-0.1,0.9-0.8,0.7-1.5l-0.5-1.3C493.1,280,492.7,279.7,492.3,279.8
			L492.3,279.8z"/>
	</g>
	<g>
		<path class="st11" d="M444.5,289.9l-7.5,12.3c0,0-10.6,41.7,0,41.9c10.6,0.2,32.1-21.3,32.1-21.3l-2.8-11.2l-7.8,3.1l1.6-24.9
			h-15.6L444.5,289.9L444.5,289.9z"/>
		<path class="st7" d="M467.8,258.7c0,0-24.9-4.4-27.2,11.9c-2.3,16.3-3.6,31.7-3.6,31.7l26.9,2.2L467.8,258.7z"/>
		<ellipse transform="matrix(0.8145 -0.5801 0.5801 0.8145 -93.913 333.0349)" class="st11" cx="473.9" cy="313.4" rx="14" ry="7"/>
	</g>
</g>
</svg>
